PathFileType	4	(X/Y/Z)	Patient4_TMGait_0pt6_01_right_15.trc.trc
DataRate	CameraRate	NumFrames	NumMarkers	Units	OrigDataRate	OrigDataStartFrame	OrigNumFrames
80.000000000000	80.000000000000	4	33	mm	80.000000000000	1	       141
Frame#	Time	Sacral			L.Shoulder			Chest			R.Shoulder			Neck			R.ASIS			L.ASIS			R.Thigh.Superior			R.Thigh.Lateral			R.Thigh.Inferior			R.Patella			L.Thigh.Superior			L.Thigh.Lateral			L.Thigh.Inferior			L.Patella			L.Shank.Superior			L.Shank.Lateral			L.Shank.Inferior			R.Shank.Superior			R.Shank.Lateral			R.Shank.Inferior			R.Heel			R.Midfoot.Superior			R.Midfoot.Lateral			R.Toe			L.Heel			L.Midfoot.Lateral			L.Midfoot.Superior			L.Toe			L.Elbow			L.Wrist			R.Elbow			R.Wrist			
		X1	Y1	Z1	X2	Y2	Z2	X3	Y3	Z3	X4	Y4	Z4	X5	Y5	Z5	X6	Y6	Z6	X7	Y7	Z7	X8	Y8	Z8	X9	Y9	Z9	X10	Y10	Z10	X11	Y11	Z11	X12	Y12	Z12	X13	Y13	Z13	X14	Y14	Z14	X15	Y15	Z15	X16	Y16	Z16	X17	Y17	Z17	X18	Y18	Z18	X19	Y19	Z19	X20	Y20	Z20	X21	Y21	Z21	X22	Y22	Z22	X23	Y23	Z23	X24	Y24	Z24	X25	Y25	Z25	X26	Y26	Z26	X27	Y27	Z27	X28	Y28	Z28	X29	Y29	Z29	X30	Y30	Z30	X31	Y31	Z31	X32	Y32	Z32	X33	Y33	Z33	

1	17.620000000000	632.612150716183	1007.804693605163	437.893147102780	804.529917655077	1438.417336678468	264.555743964747	906.566850197308	1368.355429126377	425.383486065665	819.898988811139	1435.814680505046	599.601614751411	785.814464753823	1497.392353362812	417.795027643091	856.320580889845	942.056695141085	557.481371693986	849.348396644227	966.147026420293	283.878727061745	938.599734106585	771.125660984971	520.429354011617	899.280073538334	647.800801133183	587.589245486065	987.910246570651	610.760188018315	505.615896510849	1005.148966144987	494.378474802920	522.581230816150	902.935846488565	753.629369927759	315.179700707029	816.918504248916	637.727743605314	255.988329190066	897.957750004009	561.123973883461	324.766232316362	898.043112899064	491.378820068128	335.974427379060	871.838243205984	418.504186515248	326.017144814439	784.829463293330	303.507266646954	273.920274837850	833.571851771753	193.670031437022	347.902358766705	924.253645730205	422.722469908881	527.837753965524	800.615390987741	388.910684796054	587.236938433831	778.264628689396	283.188503171599	535.480983284691	574.613281783902	240.212030426842	504.007130922941	736.406937120261	164.335620281660	548.876237302354	625.624473766487	173.524384989104	577.445595834032	786.982114862009	43.496815864596	572.948974323866	704.641624082018	37.598747486819	388.986978001558	777.431004524755	35.060079937880	306.960572664594	860.513445558800	96.604359882526	333.374075615351	988.670773459964	45.758965688952	302.290522636172	819.728153841797	1091.603043408129	123.221759077205	972.329517647098	878.367917577983	136.326160845877	783.638603443880	1082.209622768426	702.142074911415	887.828063484441	841.778985134893	689.711459546055	
2	17.632500000000	631.469355439020	1008.503279407451	436.174738177772	805.992858834127	1439.705312021723	264.840125967536	906.426503607440	1368.760019800385	426.252109576261	818.390834545698	1435.684423979709	599.912807264697	786.004338970998	1497.958064564877	418.329155232433	854.789631890873	943.070908676035	557.164225296107	850.002814277072	966.860836801633	283.273975232953	939.519908230429	775.018311121069	519.937837010816	902.762011681606	651.199097315213	587.302440396340	991.624103240488	615.663038636139	505.001817448963	1011.574004514229	500.405406849711	522.274559443460	900.212794893318	752.773252943476	315.648457301125	813.237792233989	637.834852011064	255.517825629809	892.610664840393	560.321919147221	324.876190962696	891.674820129260	490.637834569097	336.100564853590	865.392536591069	418.146144845231	325.902547472284	778.037058706487	303.427013304200	273.693462757281	826.099011795502	193.495932399206	347.922515347178	933.662325959271	426.321373292175	527.619418966926	811.937332764771	387.034627278301	586.775284511041	794.732026370957	280.581010316873	534.871573860505	593.752785690552	227.718619519257	503.077407764995	758.676577466347	160.473902279561	548.278899581134	647.818098439705	164.122445459396	576.684331605243	815.041328995987	42.851691815705	572.794565613704	696.540032625071	37.573995830261	389.001643751538	769.437807320854	35.051413800201	306.946565229458	852.545566868254	96.598736701286	333.388713694745	980.702011510249	45.680509252311	302.309470667448	825.468884569512	1094.034520003309	122.159447535819	988.078451250058	889.789212264070	136.878198741676	774.313294161082	1082.892530529112	700.341161328662	863.178314739404	837.925371114737	689.590640563552	
3	17.645000000000	630.343639030178	1009.186474882988	434.486172491928	807.461705258680	1440.953804252137	265.145566854722	906.307058571996	1369.130591491407	427.129493224804	816.923133700236	1435.537712586091	600.234087414217	786.206133341015	1498.496232666347	418.871675322012	853.282637343053	944.044295914037	556.858575890946	850.588126677174	967.515002628501	282.705264402055	940.373460459676	778.786607269424	519.485654149734	906.059490753858	654.476220785073	587.046513034103	995.155687787387	620.390729775843	504.459916301150	1017.728888806392	506.290574084675	522.046695981631	897.520204796131	751.914908140198	316.107370308966	809.594603722636	637.929658419616	255.043030467575	887.309917054807	559.514806203365	324.975223431610	885.369415949092	489.901077672211	336.205809685820	859.007679327580	417.777373133501	325.782982670779	771.309737330292	303.341645180340	273.459938714066	818.694250109134	193.315915761113	347.938019844994	942.868331538991	429.808923647533	527.462716272328	823.166312623143	384.983079697149	586.395391488077	811.172401385361	277.860442369576	534.351779655170	613.029460875808	215.031411277266	502.268271866575	781.011373795296	156.547310856147	547.767506912488	670.157545033853	154.594564536735	576.041396529893	843.195701330926	42.248800142552	572.690785026233	688.523723722435	37.546035594972	389.008367085303	761.518639846621	35.038219440140	306.933033447729	844.650376057804	96.590120684566	333.403399751886	972.808808226380	45.605740173366	302.326850285087	831.104735215762	1096.403514509435	121.176802358480	1003.560722143626	901.191214291954	137.486267567328	765.041095915836	1083.638609804328	698.642194581442	838.969549860111	834.390991352514	689.492487565497	
4	17.657500000000	629.265933417906	1009.829293981655	432.862772480490	808.940650284415	1442.116314657819	265.495030053593	906.230634987954	1369.430926616703	428.027435491984	815.539988927263	1435.359773936912	600.579326675131	786.436480852139	1498.975522114587	419.433277334236	851.831194562593	944.932343574616	556.584958628357	851.053962470052	968.052414659166	282.213385808923	941.076951624935	782.268188662028	519.121288800087	908.950512347409	657.483893491061	586.867843893734	998.279225464259	624.732433858291	504.068379142357	1023.311535403952	511.876512868275	521.966159148144	894.886480214940	751.044939351851	316.549529501165	806.013712394310	637.997945997186	254.566224814976	882.086893086421	558.694375483620	325.054333245824	879.168935961601	489.169142073994	336.274919122184	852.722607388464	417.387526786171	325.656395980487	764.685220001782	303.247192639578	273.217125278749	811.391810160122	193.124955612393	347.945743773672	951.649867745827	433.073610666865	527.429376026750	834.234057477242	382.600568486148	586.189216857947	827.584233009787	274.961866889097	534.010720410960	632.674343023895	202.014116658648	501.708178186524	803.517897487635	152.572130688909	547.424170978753	692.867590037508	144.890457606389	575.629200028400	871.562036588610	41.853438572045	572.677090693971	680.635188340927	37.517321716000	389.001738794547	753.707624519495	35.020335958207	306.919108476891	836.862173375394	96.575876499803	333.418747858838	965.025687920300	45.533898178023	302.342397898873	836.561353798959	1098.641753427844	120.362967501497	1018.528542593806	912.562003164970	138.223974844864	755.874973003014	1084.520062990878	697.141385843368	815.608053923082	831.474283102251	689.444481970544	
